# xmcd
#
# Track frame offsets: 
#        150
#        15851
#        35873
#        52846
#        70057
#        82574
#        104868
#        120608
#        137717
#        156968
#        178298
#        193345
#        209757
#        225484
#        244507
#        262846
#        285462
#        302844
#
# Disc length: 4246 seconds
#
# Revision: 0
# Processed by: cddbd v1.5.2PL0 Copyright (c) Steve Scherf et al.
# Submitted via: ExactAudioCopyFreeDBPlugin 1.0
#
DISCID=f8109412
DTITLE=Liveta Ir Petras Kazlauskai - Liveta Ir Petras Kazlauskai
DYEAR=1998
DGENRE=Pop
TTITLE0=Tau, Tau Tau
TTITLE1=Rudens Svaigulys
TTITLE2=Apkabink
TTITLE3=Šilagėlė Mamai
TTITLE4=Ačiū Tau
TTITLE5=Tiktai Tu
TTITLE6=Tu Man Atleisk
TTITLE7=Ne, Nemeluok
TTITLE8=Einu
TTITLE9=Neverk, Mieloji
TTITLE10=Tai Kodėl?
TTITLE11=Tėvui
TTITLE12=Padovanosiu Meilę
TTITLE13=Aš Lauksiu Tavęs
TTITLE14=Tu Ir Aš
TTITLE15=Išpažintis
TTITLE16=Ruduo
TTITLE17=Mylėk Mane
EXTD=
EXTT0=
EXTT1=
EXTT2=
EXTT3=
EXTT4=
EXTT5=
EXTT6=
EXTT7=
EXTT8=
EXTT9=
EXTT10=
EXTT11=
EXTT12=
EXTT13=
EXTT14=
EXTT15=
EXTT16=
EXTT17=
PLAYORDER=
